# xmcd
#
# Track frame offsets:
# 150
# 19762
# 33872
# 47840
# 68727
# 87167
# 112675
# 126887
# 142370
# 160937
# 175365
# 190257
# 204970
#
# Disc length: 2930 seconds
#
#
# Revision: 0
# Processed by: cddbd v1.5.1PL0 Copyright (c) Steve Scherf et al.
# Submitted via: FreeRIP 2.91 
#
DISCID=ae0b700d
DTITLE=Square One - Spellbound
DYEAR=1900
DGENRE=Blues
TTITLE0=Thinkin' bout you
TTITLE1=Treat me nice
TTITLE2=All time low
TTITLE3=Drivin' high
TTITLE4=Out of sight
TTITLE5=Mean tempered bumblebee
TTITLE6=Wined, dined and sixty-nined
TTITLE7=Don't screw me around
TTITLE8=Spellbound
TTITLE9=Cruisin'
TTITLE10=Let her go
TTITLE11=Stop wastin' my time
TTITLE12=Press mute
EXTD=
EXTT0=
EXTT1=
EXTT2=
EXTT3=
EXTT4=
EXTT5=
EXTT6=
EXTT7=
EXTT8=
EXTT9=
EXTT10=
EXTT11=
EXTT12=
PLAYORDER=
